<?xml version="1.0" encoding="iso-8859-1"?>
<!-- Generator: Adobe Illustrator 19.0.0, SVG Export Plug-In . SVG Version: 6.00 Build 0)  -->
<svg version="1.1" id="Capa_1" xmlns="http://www.w3.org/2000/svg" xmlns:xlink="http://www.w3.org/1999/xlink" x="0px" y="0px"
	 viewBox="0 0 496 496" style="enable-background:new 0 0 496 496;" xml:space="preserve">
<g>
	<g>
		<g>
			<path d="M440,304h-18.848c14.392-11.632,24.224-28.664,26.376-48H448c17.648,0,32-14.352,32-32v-64c0-48.52-39.48-88-88-88
				h-26.336c-21.344,0-40.536,11.864-50.088,30.96l-1.368,2.744l-7,2.8C285.824,117.056,272,137.464,272,160.496V224
				c0,17.648,14.352,32,32,32h0.472c2.152,19.336,11.984,36.368,26.376,48h-30.96c-14.96,0-29.016,5.824-39.6,16.4l-16.448,16.448
				c-2.752,2.76-7.056,3.128-10.248,0.896L208,319.832V160h-80v32H64v32H0v96h120.344c0.832,8.28,5.008,15.944,11.856,20.832
				l83.464,59.616c14.496,10.344,34.336,9.824,48.232-1.32L280,386.248V496h216V360C496,329.12,470.88,304,440,304z M64,304H16v-64
				h48V304z M448,240v-32c8.824,0,16,7.176,16,16C464,232.824,456.824,240,448,240z M304,240c-8.824,0-16-7.176-16-16
				c0-8.824,7.176-16,16-16V240z M304,176v16c-5.856,0-11.272,1.696-16,4.448v-35.952c0-16.448,9.872-31.032,25.152-37.136
				l12.648-5.064l4.096-8.184C336.704,96.472,350.416,88,365.664,88H392c39.696,0,72,32.304,72,72v36.448
				c-4.728-2.752-10.144-4.448-16-4.448v-16H304z M320,248v-56h112v56c0,30.88-25.12,56-56,56S320,278.88,320,248z M399.6,315.944
				C397.704,327.296,387.88,336,376,336s-21.704-8.704-23.6-20.056c7.408,2.584,15.328,4.056,23.6,4.056
				C384.272,320,392.192,318.528,399.6,315.944z M128,272v25.2c-1.896,2.016-3.456,4.312-4.728,6.8H80v-96h48v48h16v-80h48v128
				h-6.624l-15.328-10.728c-4.92-3.448-10.696-5.272-16.712-5.272h-4.208c-1.76,0-3.456,0.216-5.128,0.52V272H128z M224.96,387.424
				l-83.464-59.616c-3.44-2.456-5.496-6.448-5.496-10.68c0-7.24,5.888-13.128,13.128-13.128h4.208c2.712,0,5.312,0.824,7.528,2.376
				l63.544,44.48c5.2,3.64,11.384,4.888,17.288,4.008l5.888,35.352C240.192,393.072,231.632,392.192,224.96,387.424z M480,480h-32
				v-48h32V480z M480,416h-32v-24h-16v88H296V368h-18.808l-15.072,12.064l-5.552-33.32l15.032-15.032
				C279.152,324.16,289.2,320,299.88,320h36.92c3.712,18.232,19.88,32,39.192,32s35.48-13.768,39.192-32H440
				c22.056,0,40,17.944,40,40V416z"/>
			<path d="M376,288c17.648,0,32-14.352,32-32h-16c0,8.824-7.176,16-16,16c-8.824,0-16-7.176-16-16h-16
				C344,273.648,358.352,288,376,288z"/>
			<rect x="400" y="208" width="16" height="16"/>
			<rect x="336" y="208" width="16" height="16"/>
			<path d="M24,144c13.232,0,24-10.768,24-24c0-3.968-1.064-7.664-2.776-10.968l41.184-47.064C89.352,63.264,92.584,64,96,64
				c3.696,0,7.152-0.904,10.28-2.408l32.12,32.12c-1.496,3.136-2.4,6.592-2.4,10.288c0,13.232,10.768,24,24,24s24-10.768,24-24
				c0-3.968-1.064-7.664-2.776-10.968l41.184-47.064C225.352,47.264,228.584,48,232,48c13.232,0,24-10.768,24-24S245.232,0,232,0
				s-24,10.768-24,24c0,3.968,1.064,7.664,2.776,10.968l-41.184,47.064C166.648,80.736,163.416,80,160,80
				c-3.696,0-7.152,0.904-10.28,2.408l-32.12-32.12c1.496-3.136,2.4-6.592,2.4-10.288c0-13.232-10.768-24-24-24S72,26.768,72,40
				c0,3.968,1.064,7.664,2.776,10.968L33.592,98.032C30.648,96.736,27.416,96,24,96c-13.232,0-24,10.768-24,24S10.768,144,24,144z
				 M232,16c4.408,0,8,3.592,8,8s-3.592,8-8,8s-8-3.592-8-8S227.592,16,232,16z M160,96c4.408,0,8,3.592,8,8s-3.592,8-8,8
				s-8-3.592-8-8S155.592,96,160,96z M96,32c4.408,0,8,3.592,8,8s-3.592,8-8,8s-8-3.592-8-8S91.592,32,96,32z M24,112
				c4.408,0,8,3.592,8,8c0,4.408-3.592,8-8,8s-8-3.592-8-8S19.592,112,24,112z"/>
			<rect x="32" y="272" width="16" height="16"/>
			<rect x="96" y="272" width="16" height="16"/>
			<rect x="96" y="240" width="16" height="16"/>
			<rect x="160" y="272" width="16" height="16"/>
			<rect x="160" y="240" width="16" height="16"/>
			<rect x="160" y="208" width="16" height="16"/>
		</g>
	</g>
</g>
<g>
</g>
<g>
</g>
<g>
</g>
<g>
</g>
<g>
</g>
<g>
</g>
<g>
</g>
<g>
</g>
<g>
</g>
<g>
</g>
<g>
</g>
<g>
</g>
<g>
</g>
<g>
</g>
<g>
</g>
</svg>
